<svg xmlns="http://www.w3.org/2000/svg" version="1.0" width="977.000000pt" height="980.000000pt" viewBox="0 0 977.000000 980.000000" preserveAspectRatio="xMidYMid meet">

<g transform="translate(0.000000,980.000000) scale(0.100000,-0.100000)" fill="#ffffff" stroke="none">
<path d="M4986 8739 c-11 -59 -6 -266 9 -355 9 -49 45 -174 81 -279 36 -104 79 -233 95 -285 53 -171 93 -275 116 -297 18 -18 33 -23 77 -23 47 0 58 4 70 23 42 65 62 424 32 579 -27 138 -77 249 -165 368 -50 67 -280 300 -297 300 -6 0 -14 -14 -18 -31z" fill="#ffffff"/>
<path d="M4520 8520 c-8 -16 -7 -41 5 -103 35 -169 81 -288 183 -475 33 -59 103 -188 157 -287 54 -99 104 -188 113 -197 8 -10 26 -18 40 -18 30 0 130 29 137 39 13 22 -57 304 -111 444 -112 291 -275 495 -481 601 -31 15 -33 15 -43 -4z" fill="#ffffff"/>
<path d="M5732 8404 c-58 -65 -115 -173 -137 -259 -19 -74 -32 -184 -45 -381 -6 -97 -17 -174 -29 -215 -19 -60 -19 -64 -3 -83 26 -29 92 -56 138 -56 52 0 82 26 122 106 114 228 166 493 128 645 -23 88 -100 292 -113 296 -6 2 -33 -22 -61 -53z" fill="#ffffff"/>
<path d="M3760 8375 c0 -8 22 -47 49 -87 27 -40 89 -147 136 -237 170 -323 236 -397 514 -575 191 -123 387 -236 409 -236 32 0 8 121 -58 285 -131 330 -370 623 -612 750 -87 46 -160 71 -277 96 -114 23 -161 25 -161 4z" fill="#ffffff"/>
<path d="M6329 8066 c-96 -33 -165 -74 -229 -133 -46 -42 -70 -77 -122 -180 -71 -138 -153 -336 -163 -395 -9 -47 17 -104 58 -125 76 -39 177 15 343 182 157 156 178 207 200 468 9 98 13 185 10 193 -7 19 -20 18 -97 -10z" fill="#ffffff"/>
<path d="M3710 7828 c1 -36 151 -116 300 -161 47 -14 94 -28 104 -33 19 -7 19 -6 3 16 -43 62 -161 170 -196 180 -54 15 -211 13 -211 -2z" fill="#ffffff"/>
<path d="M3558 7640 c-158 -20 -165 -34 -50 -98 42 -23 140 -83 217 -133 224 -145 333 -192 525 -224 198 -34 387 -94 506 -160 56 -31 65 -34 71 -19 8 22 -28 94 -72 143 -20 22 -79 72 -131 111 -369 279 -760 418 -1066 380z" fill="#ffffff"/>
<path d="M6680 7550 c-186 -22 -341 -110 -517 -293 -98 -102 -143 -163 -143 -192 0 -32 44 -75 76 -75 28 0 212 39 331 71 172 45 253 91 319 182 46 62 131 231 141 277 4 25 2 28 -34 33 -45 8 -85 7 -173 -3z" fill="#ffffff"/>
<path d="M5212 7380 c-349 -53 -391 -528 -77 -868 189 -204 471 -292 679 -212 75 29 147 99 184 178 24 51 26 68 26 172 0 133 -22 210 -93 329 -160 270 -465 440 -719 401z" fill="#ffffff"/>
<path d="M3884 7110 c-149 -16 -576 -135 -582 -163 -2 -11 33 -27 145 -62 436 -139 474 -146 908 -155 319 -7 357 -9 430 -30 120 -33 125 -34 125 -19 0 25 -81 139 -142 200 -107 106 -266 181 -448 213 -109 19 -332 27 -436 16z" fill="#ffffff"/>
<path d="M6530 6984 c-168 -30 -448 -116 -457 -140 -3 -8 1 -22 10 -32 8 -9 22 -34 32 -55 11 -24 30 -44 49 -52 28 -13 415 -87 601 -115 134 -21 238 5 388 98 109 66 142 95 135 113 -9 23 -175 105 -293 145 -108 37 -114 38 -275 40 -91 1 -176 0 -190 -2z m135 -162 c29 -17 -109 -15 -200 3 l-70 14 125 -2 c73 -2 133 -8 145 -15z" fill="#ffffff"/>
<path d="M4290 6630 c-102 -13 -201 -44 -288 -91 -130 -69 -336 -237 -317 -258 13 -13 140 -45 270 -67 138 -24 374 -24 482 -1 115 24 223 61 328 112 106 52 245 140 245 155 0 13 -117 69 -208 99 -147 50 -354 70 -512 51z" fill="#ffffff"/>
<path d="M6167 6541 c-71 -18 -98 -35 -81 -50 5 -4 94 -70 198 -145 104 -76 243 -181 310 -234 114 -92 361 -327 420 -401 21 -26 30 -31 39 -22 17 17 -18 173 -55 243 -17 32 -59 91 -95 133 -35 41 -58 75 -51 75 7 0 56 -11 108 -24 151 -38 378 -72 392 -58 15 15 -73 133 -160 213 -173 160 -369 243 -647 274 -171 19 -293 18 -378 -4z" fill="#ffffff"/>
<path d="M5013 6336 c-96 -76 -262 -144 -488 -201 -55 -13 -111 -33 -125 -43 -48 -36 -222 -419 -247 -543 -5 -26 -3 -29 19 -29 39 0 224 64 332 114 230 107 402 263 497 448 16 32 29 61 29 65 0 3 -42 -34 -92 -83 -87 -84 -184 -161 -193 -152 -2 2 55 79 128 170 140 177 215 288 195 287 -7 0 -32 -15 -55 -33z" fill="#ffffff"/>
<path d="M5180 6293 c-22 -104 -78 -243 -142 -351 l-63 -107 1 -150 c1 -134 4 -162 32 -266 17 -63 55 -182 84 -265 67 -184 72 -186 140 -64 89 159 162 375 187 554 15 109 13 288 -4 371 -21 100 -73 200 -140 273 -31 34 -63 62 -70 62 -8 0 -18 -22 -25 -57z" fill="#ffffff"/>
<path d="M6000 6343 c0 -5 30 -35 68 -67 75 -65 151 -155 223 -264 89 -135 136 -256 170 -436 24 -127 39 -170 77 -209 27 -28 419 -237 446 -237 8 0 17 4 21 9 12 21 -167 483 -227 586 -130 221 -372 467 -548 555 -90 45 -230 83 -230 63z" fill="#ffffff"/>
<path d="M5793 6199 c-19 -19 -16 -28 15 -63 74 -84 156 -287 207 -511 35 -158 83 -255 181 -370 42 -49 90 -109 107 -132 17 -24 34 -43 37 -43 57 0 79 342 32 500 -82 277 -244 524 -393 600 -53 28 -167 39 -186 19z" fill="#ffffff"/>
<path d="M5516 6182 c-2 -4 11 -39 30 -77 27 -57 104 -310 104 -346 0 -5 -6 -9 -14 -9 -8 0 -28 40 -51 103 -21 56 -46 126 -57 155 -12 32 -25 52 -35 52 -11 0 -14 -6 -9 -22 15 -50 19 -282 6 -398 -12 -107 -11 -123 5 -172 31 -97 92 -212 174 -326 86 -122 117 -189 127 -278 7 -57 27 -81 45 -53 21 33 72 166 89 235 63 244 40 548 -60 786 -40 98 -139 247 -189 287 -65 51 -151 85 -165 63z" fill="#ffffff"/>
<path d="M3518 6124 c-3 -2 1 -35 9 -72 36 -172 44 -275 52 -652 8 -378 9 -387 35 -475 48 -158 127 -272 250 -359 62 -44 125 -80 131 -74 2 2 -19 37 -46 77 -47 72 -59 101 -41 101 5 0 26 -22 48 -50 57 -71 66 -66 39 23 -8 26 -12 47 -9 47 8 0 41 -84 110 -275 75 -209 125 -337 130 -332 2 1 -6 72 -17 157 -31 244 -91 494 -218 905 -23 73 -33 121 -25 110 31 -41 204 -403 234 -490 17 -49 44 -139 59 -200 l28 -110 39 75 c85 167 97 199 102 296 8 155 -41 317 -147 482 -75 116 -76 117 -145 94 -44 -15 -60 -16 -72 -7 -14 10 -15 16 0 63 8 29 12 60 9 70 -30 84 -531 621 -555 596z" fill="#ffffff"/>
<path d="M4815 5712 c-101 -81 -145 -180 -145 -329 0 -35 4 -63 9 -63 4 0 16 21 26 48 33 87 67 145 114 196 26 28 55 62 64 76 21 30 24 120 4 120 -7 0 -40 -22 -72 -48z" fill="#ffffff"/>
<path d="M4857 5498 c-238 -429 -518 -1218 -640 -1803 -64 -308 -117 -736 -117 -958 0 -82 -13 -117 -28 -77 -18 46 -100 245 -121 293 -53 122 -160 260 -268 348 -171 137 -356 205 -638 235 l-70 8 55 9 c81 13 263 1 355 -23 167 -43 379 -171 465 -280 50 -63 60 -55 60 48 0 172 -55 308 -166 411 -76 72 -130 105 -227 138 -62 22 -90 26 -202 27 -148 1 -232 -15 -385 -71 -172 -64 -600 -279 -600 -302 0 -5 19 -21 41 -36 66 -43 171 -158 260 -284 148 -208 276 -310 449 -357 96 -26 246 -24 335 4 81 25 135 56 135 76 0 23 -124 131 -233 203 -125 83 -342 192 -531 268 -77 30 -142 58 -145 62 -11 11 164 -6 260 -26 293 -61 616 -218 805 -392 133 -121 229 -255 319 -441 64 -133 67 -146 100 -432 43 -375 96 -687 161 -951 42 -170 47 -175 148 -175 114 0 114 0 72 160 -99 379 -172 848 -192 1241 -6 133 -6 138 20 194 39 86 156 280 224 370 310 415 761 710 1215 794 26 4 47 7 47 6 0 -2 -46 -29 -102 -60 -254 -143 -437 -283 -620 -473 -113 -119 -228 -264 -228 -288 0 -42 164 -139 293 -173 163 -43 386 -37 564 15 243 70 434 194 663 431 63 65 164 169 225 232 233 241 460 398 745 516 36 15 69 31 74 36 19 18 -229 106 -469 167 -249 64 -461 101 -695 122 -149 13 -489 13 -621 0 -421 -43 -745 -200 -903 -439 -76 -115 -132 -273 -124 -349 3 -33 4 -32 67 58 117 166 305 322 492 409 79 37 140 60 129 48 -3 -2 -50 -38 -105 -80 -340 -255 -609 -586 -822 -1012 l-75 -150 5 160 c22 594 216 1360 525 2076 93 215 104 251 105 339 1 59 -23 162 -43 183 -4 5 -23 -20 -43 -55z" fill="#ffffff"/>
</g>
</svg>